<?xml version="1.0" encoding="UTF-8"?>
<svg version="1.1" xmlns="http://www.w3.org/2000/svg" width="512" height="512">
<path d="M0 0 C10.55639513 9.65156127 20.38630936 19.58709814 28.91259766 31.09326172 C30.1502098 32.76221322 31.40803819 34.41427553 32.66796875 36.06640625 C49.10714212 57.97333487 61.0719741 83.40397772 68.1875 109.8125 C68.41276367 110.64507324 68.63802734 111.47764648 68.87011719 112.33544922 C84.34649958 171.07284628 75.97887244 234.99623373 45.75 287.6875 C35.8277185 304.58200858 23.64927095 319.61197333 10.1875 333.8125 C9.47787109 334.56515137 9.47787109 334.56515137 8.75390625 335.33300781 C1.67194165 342.79402065 -5.83548827 349.36267481 -14.07861328 355.51416016 C-15.7099672 356.73572311 -17.32249123 357.98231799 -18.93359375 359.23046875 C-66.9975219 395.29312231 -129.12680743 408.57523876 -188.13671875 400.8515625 C-246.08017812 392.36297649 -301.84256006 361.40056673 -337.24609375 314.26953125 C-337.88973877 313.40062256 -337.88973877 313.40062256 -338.54638672 312.51416016 C-339.7517921 310.8940916 -340.98652748 309.29596855 -342.22265625 307.69921875 C-376.89853654 262.10764265 -391.57981292 200.49626316 -384.56640625 143.93359375 C-376.2598772 84.57287069 -347.32175103 27.5816829 -299.03955078 -9.29150391 C-297.86734231 -10.17203457 -296.69223797 -11.04872435 -295.51416016 -11.92138672 C-293.8940916 -13.1267921 -292.29596855 -14.36152748 -290.69921875 -15.59765625 C-210.05038048 -76.93726546 -91.59450161 -72.37344321 0 0 Z " fill="#FEFEFE" transform="translate(410.8125,84.1875)"/>
<path d="M0 0 C4.73163183 1.72886547 7.37237715 3.70821601 10 8 C10.6113056 9.8451334 11.1910181 11.70084723 11.75 13.5625 C13.96638643 20.618574 17.61928225 26.09485666 22 32 C22.64195312 32.86625 23.28390625 33.7325 23.9453125 34.625 C35.13586721 49.12288464 48.94627266 59.08850021 64.125 69.0625 C89.69215498 85.91840827 110.81292131 105.48084032 119 136 C119.2638147 136.98178223 119.2638147 136.98178223 119.53295898 137.98339844 C120.97936901 143.82048932 121.35009374 149.37396487 121.3125 155.375 C121.30686035 156.33325684 121.3012207 157.29151367 121.29541016 158.27880859 C120.80732015 187.53038072 110.94469207 216.81853009 93 240 C91.95392578 241.35158203 91.95392578 241.35158203 90.88671875 242.73046875 C87.80303458 246.43982797 85.37659686 247.8498258 80.5625 248.375 C74.73119479 247.7611784 70.76744319 245.46511786 67 241 C65.44461794 236.33385381 65.37991885 232.51919881 67.25 227.9375 C69 225 69 225 71.1875 222.0625 C73.91645931 217.45149978 73.40176606 213.64594481 72.15234375 208.52734375 C63.85376239 184.00516924 49.34575683 162.13642724 25.80072021 149.8526001 C23.55587558 148.77121716 21.29938645 147.72298813 19.03125 146.69140625 C18.25426758 146.33212036 17.47728516 145.97283447 16.67675781 145.60266113 C14.78698023 144.72972926 12.8938394 143.8640843 11 143 C11.00368717 143.84353625 11.00737434 144.68707251 11.01117325 145.55617046 C11.09968113 166.12326738 11.16578576 186.69033127 11.20724869 207.25757885 C11.22783508 217.20393419 11.25588035 227.15016205 11.30175781 237.09643555 C11.34174603 245.77008428 11.36746129 254.44364065 11.37635398 263.11737901 C11.38154851 267.70603109 11.39367493 272.29441902 11.42292023 276.88298607 C11.45027917 281.21107492 11.4584041 285.53879341 11.45243073 289.86696053 C11.45352188 291.44666438 11.46135302 293.02638195 11.4768219 294.60601044 C11.62738278 310.78866144 7.91158182 325.02861098 -3.19140625 337.28515625 C-20.32849481 353.5339292 -41.71353668 358.61887488 -64.60546875 358.26953125 C-84.10749228 357.57290785 -102.39444274 348.27188658 -115.75 334.25 C-124.70699406 323.47196223 -127.60414447 311.55261608 -127.37109375 297.84375 C-126.06097867 284.27371593 -117.86397612 272.52048513 -107.609375 263.91015625 C-88.1649017 249.67610319 -66.8846676 245.76549701 -43.25 248.625 C-34.38465021 250.19549842 -25.99659357 253.95449846 -18 258 C-17.99853344 256.72740515 -17.99706688 255.4548103 -17.99555588 254.14365196 C-17.95985686 223.93742845 -17.90362005 193.73132086 -17.82207905 163.52518895 C-17.81206154 159.80764589 -17.80221742 156.09010239 -17.79248047 152.37255859 C-17.78956841 151.26241069 -17.78956841 151.26241069 -17.78659752 150.12983556 C-17.75557315 138.14495338 -17.73859566 126.16009036 -17.72680578 114.17517559 C-17.71439647 101.87829701 -17.68690008 89.58151897 -17.64538693 77.28470385 C-17.62024513 69.6963709 -17.60688321 62.10820466 -17.60857043 54.51982947 C-17.60860369 48.70186694 -17.58765002 42.8840991 -17.55883217 37.06620407 C-17.55030143 34.67892913 -17.54860463 32.29161865 -17.55419731 29.90433502 C-17.56081069 26.64803799 -17.54297918 23.39276051 -17.51898193 20.13656616 C-17.52674235 19.18908803 -17.53450277 18.2416099 -17.54249835 17.26542032 C-17.45179172 10.32566721 -15.57097335 6.7138052 -10.75 1.625 C-7.12956463 -0.51434817 -4.05442346 -0.65316842 0 0 Z " fill="#010101" transform="translate(259,77)"/>
</svg>
